# xmcd
#
# Track frame offsets:
#	150
#	17277
#	41623
#	66188
#	84313
#	101670
#	121108
#	140320
#	155069
#	173276
#	192312
#	209164
#
# Disc length: 2976 seconds
# Revision: 2
# Processed by: cddbd v1.5.2PL0 Copyright (c) Steve Scherf et al.
# Submitted via: dBpowerAMP V12.0
#
DISCID=980b9e0c
DTITLE=KathyMattea,AKAKathleenAliceMattea,SouthCharleston,WV - PrettyBird
DYEAR=2018
DGENRE=Country
TTITLE0=Chocolate On My Tongue
TTITLE1=Ode To Billie Joe
TTITLE2=Mercy Now
TTITLE3=Little Glass Of Wine
TTITLE4=He Moves Through The Fair
TTITLE5=St. Teresa
TTITLE6=This Love Will Carry
TTITLE7=October Song
TTITLE8=Tell Me What You Ache For
TTITLE9=Holy Now
TTITLE10=I Can't Stand Up Alone
TTITLE11=Pretty Bird
EXTD=
EXTT0=
EXTT1=
EXTT2=
EXTT3=
EXTT4=
EXTT5=
EXTT6=
EXTT7=
EXTT8=
EXTT9=
EXTT10=
EXTT11=
PLAYORDER=
